#!OML:ASF I:\Random Stuff\random\construction\7_22_03\Session 2\subj1.ASF
:FULLY-SPECIFIED
:DEGREES
1076
root 3.80461 17.7227 -12.6645 39.1637 -4.82961 -10.2064
lowerback 46.4799 -6.40152 -6.85795
upperback 12.5226 -11.7141 -10.3431
thorax -8.04566 -4.99604 -2.57716
lowerneck -17.1648 -3.36936 -12.3946
upperneck 34.1456 -0.555855 -0.271692
head 14.9056 -1.90626 1.92227
rclavicle 6.04305e-014 -8.0309e-014
rhumerus -17.7359 30.4386 -60.3802
rradius 130.022
rwrist -10.488
rhand -53.542 33.6234
rfingers 7.12502
rthumb -25.9848 5.37994
lclavicle 6.04305e-014 -8.0309e-014
lhumerus 37.4591 -45.6932 36.2149
lradius 123.69
lwrist 38.9144
lhand -14.4968 -283.368
lfingers 7.12502
lthumb -168.35 -286.288
rfemur -61.8883 -6.25503 40.3298
rtibia 32.1767
rfoot -9.98997 6.48579
rtoes -57.8024
lfemur -57.5356 10.095 6.72545
ltibia 36.7273
lfoot -13.442 5.51628
ltoes -62.8068
1077
root 3.80496 17.724 -12.6649 39.1484 -4.85949 -10.191
lowerback 46.4874 -6.41521 -6.87464
upperback 12.5076 -11.7429 -10.3608
thorax -8.06712 -5.00723 -2.57363
lowerneck -17.2443 -3.36336 -12.3874
upperneck 34.1618 -0.543835 -0.252652
head 14.9297 -1.89938 1.93062
rclavicle -2.8625e-014 6.0033e-014
rhumerus -17.6939 30.4881 -60.3532
rradius 130.022
rwrist -10.5532
rhand -53.4486 33.5985
rfingers 7.12502
rthumb -25.8954 5.34191
lclavicle -2.8625e-014 6.0033e-014
lhumerus 37.4801 -45.6636 36.2854
lradius 123.805
lwrist 39.1163
lhand -15.1224 -282.84
lfingers 7.12502
lthumb -168.953 -286.849
rfemur -61.8776 -6.26252 40.3084
rtibia 32.1795
rfoot -9.99724 6.51898
rtoes -57.7589
lfemur -57.5119 10.0866 6.70101
ltibia 36.7242
lfoot -13.4436 5.54535
ltoes -62.8194
1078
root 3.80588 17.7241 -12.6643 39.1362 -4.8643 -10.2046
lowerback 46.4628 -6.38762 -6.82161
upperback 12.5097 -11.6801 -10.3092
thorax -8.05321 -4.98245 -2.57316
lowerneck -17.2598 -3.41366 -12.5358
upperneck 34.1062 -0.607873 -0.131334
head 14.9146 -1.92458 1.99498
rclavicle -9.54166e-014 -1.27222e-014
rhumerus -17.7497 30.4428 -60.23
rradius 130.064
rwrist -10.5718
rhand -53.3972 33.5722
rfingers 7.12502
rthumb -25.8462 5.30846
lclavicle -9.54166e-014 -1.27222e-014
lhumerus 37.2712 -45.4026 36.8069
lradius 123.874
lwrist 39.5969
lhand -13.8606 -283.07
lfingers 7.12502
lthumb -167.737 -286.55
rfemur -61.8643 -6.29235 40.3419
rtibia 32.181
rfoot -10.009 6.58683
rtoes -57.6562
lfemur -57.4936 10.0909 6.70161
ltibia 36.723
lfoot -13.4295 5.60213
ltoes -62.9347
1079
root 3.8059 17.723 -12.6646 39.1428 -4.848 -10.2283
lowerback 46.43 -6.38909 -6.77006
upperback 12.5103 -11.6544 -10.2835
thorax -8.04663 -4.97304 -2.58295
lowerneck -17.2557 -3.42715 -12.5993
upperneck 34.0242 -0.643247 -0.0392039
head 14.8781 -1.93046 2.03773
rclavicle -1.30403e-013 -1.66979e-014
rhumerus -17.7786 30.4759 -60.1952
rradius 130.076
rwrist -10.5315
rhand -53.394 33.5465
rfingers 7.12502
rthumb -25.8431 5.28227
lclavicle -1.30403e-013 -1.66979e-014
lhumerus 36.9484 -45.1871 37.2632
lradius 123.92
lwrist 41.7709
lhand -14.9836 -282.933
lfingers 7.12502
lthumb -168.819 -286.749
rfemur -61.8661 -6.2738 40.356
rtibia 32.1887
rfoot -10.0149 6.56281
rtoes -57.6266
lfemur -57.5055 10.1084 6.721
ltibia 36.7248
lfoot -13.412 5.62253
ltoes -62.998
1080
root 3.80436 17.722 -12.666 39.1549 -4.84883 -10.2242
lowerback 46.4022 -6.41066 -6.76124
upperback 12.5052 -11.6768 -10.3011
thorax -8.05235 -4.98283 -2.59631
lowerneck -17.296 -3.40625 -12.509
upperneck 34.0216 -0.630461 -0.0617268
head 14.8824 -1.91735 2.01507
rclavicle 8.5875e-014 4.65156e-014
rhumerus -17.7678 30.5808 -60.2361
rradius 130.063
rwrist -10.4869
rhand -53.4071 33.6138
rfingers 7.12502
rthumb -25.8557 5.35141
lclavicle 8.5875e-014 4.65156e-014
lhumerus 36.401 -44.8223 37.9211
lradius 124.209
lwrist 43.531
lhand -14.9148 -282.558
lfingers 7.12502
lthumb -168.753 -287.12
rfemur -61.8771 -6.23336 40.33
rtibia 32.2043
rfoot -10.0604 6.48507
rtoes -57.7399
lfemur -57.5216 10.0983 6.73664
ltibia 36.7281
lfoot -13.4187 5.60074
ltoes -62.9308
1081
root 3.80259 17.7205 -12.666 39.1803 -4.8628 -10.2264
lowerback 46.3375 -6.41149 -6.73931
upperback 12.509 -11.6651 -10.312
thorax -8.03803 -4.97958 -2.62607
lowerneck -17.3269 -3.38837 -12.414
upperneck 34.0211 -0.628635 -0.0731835
head 14.8862 -1.90656 1.99446
rclavicle -4.77083e-014 -4.96962e-014
rhumerus -17.7911 30.6308 -60.2686
rradius 130.069
rwrist -10.4447
rhand -53.4223 33.6695
rfingers 7.12502
rthumb -25.8703 5.40925
lclavicle -4.77083e-014 -4.96962e-014
lhumerus 35.84 -44.6201 38.4832
lradius 124.31
lwrist 45.1273
lhand -14.949 -282.434
lfingers 7.12502
lthumb -168.786 -287.247
rfemur -61.9011 -6.21528 40.3415
rtibia 32.2195
rfoot -10.136 6.49393
rtoes -57.8243
lfemur -57.538 10.1071 6.74645
ltibia 36.7348
lfoot -13.4545 5.60471
ltoes -62.8709
1082
root 3.80084 17.7206 -12.6648 39.2015 -4.87958 -10.2377
lowerback 46.2853 -6.3811 -6.70433
upperback 12.4947 -11.6099 -10.2798
thorax -8.03752 -4.95736 -2.63405
lowerneck -17.2912 -3.38018 -12.3772
upperneck 33.9954 -0.639489 -0.0649849
head 14.8654 -1.90377 1.98997
rclavicle 2.8625e-014 2.98177e-014
rhumerus -17.8657 30.6215 -60.2453
rradius 130.106
rwrist -10.4069
rhand -53.4417 33.5725
rfingers 7.12502
rthumb -25.8888 5.31493
lclavicle 2.8625e-014 2.98177e-014
lhumerus 35.3031 -44.4239 39.053
lradius 124.307
lwrist 46.8517
lhand -14.8838 -282.707
lfingers 7.12502
lthumb -168.723 -286.97
rfemur -61.9234 -6.19168 40.3473
rtibia 32.2273
rfoot -10.1243 6.55898
rtoes -57.7084
lfemur -57.546 10.155 6.73386
ltibia 36.7407
lfoot -13.4912 5.58701
ltoes -62.8245
1083
root 3.79905 17.7214 -12.6642 39.2147 -4.8979 -10.2369
lowerback 46.2678 -6.38315 -6.71681
upperback 12.4833 -11.6198 -10.2917
thorax -8.04707 -4.96141 -2.63618
lowerneck -17.3396 -3.31074 -12.1452
upperneck 34.0184 -0.585642 -0.141058
head 14.8769 -1.86504 1.92825
rclavicle 2.22639e-014 -7.55382e-015
rhumerus -17.8905 30.6841 -60.3302
rradius 130.172
rwrist -10.3418
rhand -53.4776 33.4155
rfingers 7.12502
rthumb -25.9232 5.16298
lclavicle 2.22639e-014 -7.55382e-015
lhumerus 34.8271 -44.2462 39.4481
lradius 124.252
lwrist 49.1765
lhand -15.721 -282.694
lfingers 7.12502
lthumb -169.531 -287.025
rfemur -61.9399 -6.19518 40.3611
rtibia 32.2287
rfoot -10.1066 6.62134
rtoes -57.5278
lfemur -57.5423 10.1825 6.72657
ltibia 36.7412
lfoot -13.5009 5.53683
ltoes -62.692
1084
root 3.79751 17.7207 -12.6634 39.2314 -4.90238 -10.2259
lowerback 46.2294 -6.37416 -6.69365
upperback 12.4791 -11.5951 -10.2743
thorax -8.04112 -4.95199 -2.64099
lowerneck -17.3781 -3.2934 -12.0235
upperneck 34.0596 -0.594392 -0.143382
head 14.9018 -1.85625 1.90516
rclavicle 1.59028e-014 3.4191e-014
rhumerus -17.9814 30.691 -60.3782
rradius 130.261
rwrist -10.2741
rhand -53.4771 33.3491
rfingers 7.12502
rthumb -25.9227 5.09654
lclavicle 1.59028e-014 3.4191e-014
lhumerus 34.5945 -44.3826 39.6121
lradius 124.305
lwrist 52.5292
lhand -18.5218 -282.537
lfingers 7.12502
lthumb -172.233 -287.3
rfemur -61.9393 -6.14882 40.3124
rtibia 32.2285
rfoot -10.1945 6.51113
rtoes -57.5389
lfemur -57.5442 10.173 6.73322
ltibia 36.7288
lfoot -13.4967 5.53858
ltoes -62.6208
1085
root 3.79666 17.7193 -12.6618 39.2393 -4.86548 -10.1978
lowerback 46.1864 -6.38052 -6.6235
upperback 12.4817 -11.5631 -10.233
thorax -8.02871 -4.94015 -2.64666
lowerneck -17.4181 -3.31327 -11.9818
upperneck 34.1026 -0.644745 -0.0987751
head 14.933 -1.86793 1.90792
rclavicle 6.36111e-015 -4.45278e-014
rhumerus -18.089 30.6589 -60.3892
rradius 130.365
rwrist -10.2117
rhand -53.4127 33.08
rfingers 7.12502
rthumb -25.861 4.81837
lclavicle 6.36111e-015 -4.45278e-014
lhumerus 34.3676 -44.3959 39.8386
lradius 124.319
lwrist 56.3414
lhand -21.3624 -283.233
lfingers 7.12502
lthumb -174.976 -286.688
rfemur -61.9219 -6.04499 40.1703
rtibia 32.2312
rfoot -10.2741 6.24743
rtoes -57.7044
lfemur -57.5505 10.1095 6.75278
ltibia 36.6975
lfoot -13.5499 5.54201
ltoes -62.6422
1086
root 3.79656 17.7181 -12.6598 39.2345 -4.803 -10.1673
lowerback 46.1557 -6.38856 -6.51326
upperback 12.4887 -11.5095 -10.1426
thorax -8.00882 -4.92006 -2.629
lowerneck -17.5485 -3.33789 -11.9812
upperneck 34.2188 -0.639543 -0.139342
head 15.0182 -1.87648 1.8915
rclavicle 7.63333e-014 4.37326e-014
rhumerus -18.1787 30.5763 -60.32
rradius 130.486
rwrist -10.1546
rhand -53.2757 32.6493
rfingers 7.12502
rthumb -25.7298 4.36869
lclavicle 7.63333e-014 4.37326e-014
lhumerus 34.0678 -44.0548 40.3546
lradius 124
lwrist 59.7671
lhand -19.3013 -284.274
lfingers 7.12502
lthumb -172.986 -285.59
rfemur -61.9201 -6.04313 40.1164
rtibia 32.2417
rfoot -10.3122 6.14346
rtoes -57.8401
lfemur -57.5448 10.0339 6.77396
ltibia 36.6521
lfoot -13.6379 5.48602
ltoes -62.6695
1087
root 3.79743 17.7183 -12.6566 39.2109 -4.75441 -10.1182
lowerback 46.1125 -6.32673 -6.36487
upperback 12.4899 -11.3489 -9.9738
thorax -7.97602 -4.85552 -2.59448
lowerneck -17.5103 -3.42048 -12.067
upperneck 34.2806 -0.691478 -0.239556
head 15.0478 -1.92238 1.85559
rclavicle 6.36111e-015 1.78906e-014
rhumerus -18.3558 30.3305 -60.1543
rradius 130.549
rwrist -10.0513
rhand -53.1538 32.412
rfingers 7.12502
rthumb -25.6131 4.11448
lclavicle 6.36111e-015 1.78906e-014
lhumerus 34.0602 -43.931 40.7453
lradius 123.909
lwrist 64.0594
lhand -16.5952 -285.885
lfingers 7.12502
lthumb -170.374 -283.875
rfemur -61.9172 -6.09076 40.0633
rtibia 32.2676
rfoot -10.3432 6.11996
rtoes -57.8563
lfemur -57.5174 9.95501 6.75829
ltibia 36.6088
lfoot -13.7313 5.43106
ltoes -62.6862
1088
root 3.79891 17.7183 -12.6519 39.1796 -4.70816 -10.0692
lowerback 46.1075 -6.36923 -6.32418
upperback 12.4788 -11.3694 -9.89183
thorax -7.97532 -4.86657 -2.51836
lowerneck -17.473 -3.34671 -12.0311
upperneck 34.2064 -0.597126 -0.280096
head 14.9962 -1.88147 1.84914
rclavicle 2.09917e-013 4.94974e-014
rhumerus -18.2577 30.3667 -60.1707
rradius 130.498
rwrist -9.86824
rhand -53.0526 32.2449
rfingers 7.12502
rthumb -25.5161 3.93345
lclavicle 2.09917e-013 4.94974e-014
lhumerus 33.7443 -43.6116 40.9514
lradius 123.989
lwrist 68.1783
lhand -15.4518 -286.707
lfingers 7.12502
lthumb -169.271 -282.999
rfemur -61.907 -6.13519 39.9963
rtibia 32.3083
rfoot -10.3819 6.08235
rtoes -57.8242
lfemur -57.4886 9.87664 6.738
ltibia 36.5908
lfoot -13.7751 5.41507
ltoes -62.6066
1089
root 3.80034 17.7163 -12.6468 39.1489 -4.66431 -10.0856
lowerback 46.1197 -6.43232 -6.31211
upperback 12.4739 -11.428 -9.82233
thorax -7.97095 -4.89457 -2.42495
lowerneck -17.4975 -3.17849 -11.8869
upperneck 34.0457 -0.400887 -0.327576
head 14.907 -1.78325 1.83852
rclavicle -9.54166e-015 -1.39149e-015
rhumerus -18.0681 30.5025 -60.2003
rradius 130.474
rwrist -9.70539
rhand -52.8987 32.0417
rfingers 7.12502
rthumb -25.3687 3.70926
lclavicle -9.54166e-015 -1.39149e-015
lhumerus 33.317 -43.1358 41.0195
lradius 124.095
lwrist 72.2145
lhand -15.7102 -286.898
lfingers 7.12502
lthumb -169.52 -282.821
rfemur -61.8963 -6.2049 40.053
rtibia 32.3503
rfoot -10.4412 6.12909
rtoes -57.8318
lfemur -57.4502 9.84839 6.77077
ltibia 36.5997
lfoot -13.7711 5.41965
ltoes -62.5227
1090
root 3.80272 17.7132 -12.6418 39.0982 -4.63825 -10.1271
lowerback 46.2017 -6.66843 -6.29283
upperback 12.4264 -11.7067 -9.83261
thorax -8.06187 -5.01277 -2.31455
lowerneck -17.6176 -2.81709 -11.735
upperneck 33.8626 0.122898 -0.513074
head 14.8087 -1.56944 1.82486
rclavicle -1.59028e-013 -1.59028e-014
rhumerus -17.6685 31.0072 -60.2013
rradius 130.475
rwrist -9.62105
rhand -52.7805 31.7726
rfingers 7.12502
rthumb -25.2554 3.42419
lclavicle -1.59028e-013 -1.59028e-014
lhumerus 30.2237 -34.6302 47.089
lradius 117.466
lwrist 41.5915
lhand -19.6525 -284.049
lfingers 7.12502
lthumb -173.325 -285.825
rfemur -61.8595 -6.30348 40.1612
rtibia 32.3811
rfoot -10.4962 6.23486
rtoes -57.803
lfemur -57.3776 9.78888 6.85737
ltibia 36.6222
lfoot -13.839 5.41682
ltoes -62.4434
